<?xml version="1.0" standalone="no"?>
<!DOCTYPE svg PUBLIC "-//W3C//DTD SVG 1.1//EN" "http://www.w3.org/Graphics/SVG/1.1/DTD/svg11.dtd" >
<svg xmlns="http://www.w3.org/2000/svg">
<metadata></metadata>
<defs>
<font id="eurostile_extendedbold" horiz-adv-x="1024" >
<font-face units-per-em="2048" ascent="1638" descent="-410" />
<missing-glyph horiz-adv-x="512" />
<glyph horiz-adv-x="0" />
<glyph unicode="&#xd;" horiz-adv-x="512" />
<glyph unicode=" "  horiz-adv-x="512" />
<glyph unicode="&#x09;" horiz-adv-x="512" />
<glyph unicode="&#xa0;" horiz-adv-x="512" />
<glyph unicode="!" horiz-adv-x="669" d="M133 0v381h408v-381h-408zM141 1366h404l-23 -807h-362z" />
<glyph unicode="&#x22;" horiz-adv-x="989" d="M35 1364h422l-74 -547h-274zM530 1364h422l-75 -547h-275z" />
<glyph unicode="#" horiz-adv-x="1353" d="M160 418l24 170h201l27 178h-203l22 170h203l43 301h174l-43 -301h191l41 301h176l-43 -301h221l-25 -170h-221l-24 -178h221l-25 -170h-221l-45 -330h-176l47 330h-188l-48 -330h-174l47 330h-202zM561 588h189l24 178h-188z" />
<glyph unicode="$" horiz-adv-x="1951" d="M70 432v41h344q0 -123 50 -152.5t179 -29.5l223 -2v286l-39 3l-305 4q-231 0 -332.5 86t-101.5 311q0 223 119 304t348 81h53l232 2h26v111h207v-111q117 0 227.5 -1t268 -15.5t217 -101.5t59.5 -285h-346q0 78 -41 99t-121 21l-264 2v-245h64l272 -9q260 0 367.5 -72.5 t107.5 -316.5q0 -145 -44 -242.5t-149.5 -138.5t-227.5 -51t-281 -10h-109v-164h-207v164l-57 2l-227 6q-104 0 -173 8.5t-169.5 45t-135 123.5t-34.5 247zM449 983q0 -74 30.5 -100.5t108.5 -26.5l278 -6v240h-274q-88 0 -115.5 -24t-27.5 -83zM1073 289h305q80 0 118 31.5 t38 109.5q0 86 -48 112.5t-147 26.5l-266 6v-286z" />
<glyph unicode="%" horiz-adv-x="2224" d="M86 971v55q0 205 54.5 272.5t252.5 67.5l230 4q201 0 271.5 -59.5t70.5 -259.5v-62q0 -182 -53.5 -245.5t-280.5 -63.5l-232 -2q-180 0 -246.5 58.5t-66.5 234.5zM301 1024q0 -106 22.5 -138t120.5 -32h84q152 0 187 22.5t35 147.5q0 104 -28 141t-128 37l-133 -2 q-53 0 -77 -3t-44.5 -16.5t-29.5 -43t-9 -88.5v-25zM459 0l1136 1366h189l-1137 -1366h-188zM1278 289v55q0 205 54 272.5t253 67.5l230 4q205 0 273.5 -62.5t68.5 -256.5v-70q0 -96 -16.5 -162.5t-59.5 -92.5t-103.5 -37t-171.5 -11l-202 -2q-176 0 -251 49t-75 246z M1493 342q0 -109 21.5 -139.5t123.5 -30.5l82 -2l95 4q88 0 107.5 33t19.5 125v59q0 39 -7.5 65.5t-30 40t-50 18.5t-68.5 5l-133 -2q-53 0 -77 -3t-44.5 -16.5t-29.5 -43t-9 -88.5v-25z" />
<glyph unicode="&#x26;" horiz-adv-x="2101" d="M125 375q0 217 55.5 292.5t257.5 100.5q-100 55 -126.5 111.5t-26.5 181.5q0 162 80.5 232.5t240.5 70.5l330 8l344 -8q238 0 308.5 -92t70.5 -344h-356l2 22q0 41 -10.5 71t-33 42t-44 16t-43.5 4l-281 4h-65.5t-79 -7t-69 -26.5t-20.5 -49.5q0 -55 67 -90t87 -46 l621 -317q8 39 8 84v57q-6 27 -8 37h346q0 -135 -3.5 -187.5t-13.5 -150.5l305 -160l-122 -245l-287 141q-86 -68 -173 -96.5t-202 -28.5l-287 -10l-352 6q-242 0 -381 77t-139 300zM498 457q0 -100 50 -136t154 -36l185 -6l467 2l-699 350q-23 6 -43 6q-63 0 -88.5 -54 t-25.5 -126z" />
<glyph unicode="'" horiz-adv-x="505" d="M35 1364h434l-74 -547h-286z" />
<glyph unicode="(" horiz-adv-x="868" d="M166 233v359l8 430q0 195 127 276.5t336 81.5l192 -2v-297h-34q-168 0 -208 -37.5t-40 -207.5l-2 -504l2 -129l-2 -180q0 -92 46 -127t142 -35l96 4v-316l-161 2q-252 0 -375 81t-123 323z" />
<glyph unicode=")" horiz-adv-x="868" d="M41 -135l86 -2q104 0 151.5 30.5t47.5 129.5l-2 813q0 172 -39 208.5t-209 36.5h-35v297l197 2q301 0 384 -138t83 -462l2 -151l-2 -209l-7 -465q0 -240 -119.5 -322t-375.5 -82l-162 -2v316z" />
<glyph unicode="*" horiz-adv-x="1951" d="M502 946l63 197l309 -101v324h205v-324l310 99l63 -195l-309 -100l190 -262l-166 -121l-190 262l-191 -262l-168 121l193 262z" />
<glyph unicode="+" d="M8 664v178h412v415h184v-415h414v-178h-414v-416h-184v416h-412z" />
<glyph unicode="," horiz-adv-x="659" d="M70 -145l43 -5q72 0 100.5 38t28.5 112h-115v381h412v-381q0 -199 -75 -282t-274 -83h-30q-47 0 -90 7v213z" />
<glyph unicode="-" horiz-adv-x="708" d="M20 319v349h668v-349h-668z" />
<glyph unicode="." horiz-adv-x="679" d="M135 0v381h408v-381h-408z" />
<glyph unicode="/" horiz-adv-x="1597" d="M-250 -436l1489 1802h289l-1481 -1802h-297z" />
<glyph unicode="0" horiz-adv-x="1951" d="M127 612v76q0 408 105.5 544t486.5 136l262 4l160 2q115 0 164 -3t161.5 -18.5t198.5 -68.5t114.5 -145t40 -187.5t11.5 -263.5q0 -299 -31 -430t-157.5 -196.5t-415.5 -65.5l-430 -4q-410 0 -540 110.5t-130 509.5zM528 684q0 -215 46.5 -283.5t248.5 -68.5l162 -4h113 q199 0 265.5 54t66.5 273v31v29v24q0 88 -12.5 157t-56.5 101.5t-95.5 41t-113.5 10.5t-71 2h-192q-244 0 -302.5 -58.5t-58.5 -281.5v-27z" />
<glyph unicode="1" horiz-adv-x="1951" d="M274 983l584 383h504v-1366h-408v1044l-495 -339z" />
<glyph unicode="2" horiz-adv-x="1951" d="M176 965q0 268 108.5 333.5t395.5 65.5l459 8l229 -4q229 0 320.5 -89t91.5 -318q0 -260 -88 -359.5t-344 -99.5l-338 -23l-287 -20q-82 0 -126 -20.5t-44 -102.5v-60h1227v-276h-1602v348q0 184 68.5 271.5t249.5 111.5l716 57q96 10 138.5 37t42.5 103l-2 28 q0 80 -38 108t-151 28h-213l-241 -5q-57 0 -99.5 -13t-63 -41.5t-25.5 -55.5t-5 -62v-47h-377z" />
<glyph unicode="3" horiz-adv-x="1951" d="M158 399l4 74h375q0 -109 36.5 -153t143.5 -44l237 -2h230l47 -2q80 0 128 27t48 104q0 86 -39 118t-127 32l-100 -2h-328v264h277h71q109 0 161 18.5t52 100.5q0 94 -37 123.5t-161 29.5h-19l-227 7l-197 -7q-90 0 -136 -31.5t-46 -117.5l2 -37h-387q0 246 79 340 t248 109.5t247.5 18.5t203.5 3h55l318 -6q233 0 338.5 -79t105.5 -304q0 -66 -8 -111t-35.5 -87t-103.5 -68q-90 -25 -127 -35q178 -20 243.5 -80.5t65.5 -236.5q0 -180 -101.5 -275.5t-432.5 -95.5h-324l-262 2q-270 0 -394 74.5t-124 328.5z" />
<glyph unicode="4" horiz-adv-x="1951" d="M137 272v478l987 616h482v-817h221v-277h-221v-272h-381v272h-1088zM422 549h803v510z" />
<glyph unicode="5" horiz-adv-x="1951" d="M166 422h381q0 -113 87 -128t169 -15l198 -5l175 2q129 0 181 34t52 151q0 104 -42 146t-148 42l-224 4h-225q-49 0 -80 -3t-71.5 -16t-49.5 -69h-350l19 801h1499v-276h-1168v-279q51 61 117 85t154 24l127 2h127q88 0 173 -1t236.5 -17.5t222 -111t70.5 -300.5 q0 -260 -98.5 -378t-358.5 -118l-153 -2h-156l-391 10q-256 0 -364.5 82t-108.5 336z" />
<glyph unicode="6" horiz-adv-x="1951" d="M178 842v80t14.5 155.5t143.5 199.5t328 83q82 8 155.5 10t171.5 2q178 0 279.5 -3t240 -20.5t191.5 -107.5t53 -258h-377q-10 66 -65 86.5t-135 20.5l-121 2l-238 -5q-90 0 -135 -7t-72.5 -41.5t-35 -72.5t-7.5 -87v-50v-120q47 98 142.5 123.5t251.5 25.5l284 2 q127 0 223.5 -12t178.5 -49t108.5 -128t26.5 -208q0 -287 -112.5 -376t-420.5 -89l-426 -6q-223 0 -333.5 26.5t-190.5 87t-100.5 166t-20.5 275.5zM567 430q0 -102 55.5 -130t174.5 -28l379 4q113 0 166 30t53 132q0 78 -46 109t-124 31h-199l-262 -5q-98 0 -147.5 -26.5 t-49.5 -116.5z" />
<glyph unicode="7" horiz-adv-x="1951" d="M162 1030v336h1628v-311l-903 -1055h-492l891 1030h-1124z" />
<glyph unicode="8" horiz-adv-x="1951" d="M166 354q0 164 58.5 227.5t219.5 112.5q-156 43 -210 106.5t-54 225.5q0 188 102.5 265t297.5 77l249 8l316 -6h117q315 0 415.5 -90t100.5 -270q0 -150 -58.5 -214.5t-206.5 -105.5q147 -41 209 -100.5t62 -194.5q0 -125 -19.5 -202.5t-95.5 -126.5t-142.5 -57.5 t-140 -10.5t-137.5 -2l-278 -2l-275 2q-262 0 -396 63.5t-134 294.5zM553 424q0 -53 16.5 -81t58.5 -43t107.5 -21.5t124.5 -6.5l301 2q104 0 170 27t66 113q0 92 -56.5 123.5t-160.5 31.5h-418q-98 0 -153.5 -27.5t-55.5 -117.5zM569 977q0 -82 55.5 -114t145.5 -32l436 -2 q80 0 132.5 31t52.5 105q0 84 -56.5 109.5t-152.5 25.5l-398 2q-96 0 -155.5 -24.5t-59.5 -100.5z" />
<glyph unicode="9" horiz-adv-x="1951" d="M164 332l2 53h385q0 -68 53 -88.5t135 -20.5l209 -4l234 2q115 0 161 40t46 143v176q-47 -72 -124 -94.5t-188 -22.5l-327 -4q-299 0 -430.5 81t-131.5 361q0 244 120 328t376 84l459 6q113 0 168 -3t161.5 -21.5t183.5 -74.5t99.5 -154.5t27.5 -177.5t5 -189v-105 q0 -381 -96.5 -515t-464.5 -134l-279 -6l-411 14q-190 16 -281.5 83t-91.5 243zM575 950q0 -109 56.5 -132t185.5 -23l178 -2l187 2q100 0 159.5 24.5t59.5 110.5q0 82 -36 117.5t-120 35.5l-92 4l-211 5l-160 -2q-123 0 -165 -36t-42 -104z" />
<glyph unicode=":" horiz-adv-x="679" d="M135 0v381h408v-381h-408zM135 575v381h408v-381h-408z" />
<glyph unicode=";" horiz-adv-x="659" d="M70 -145l43 -5q72 0 100.5 38t28.5 112h-115v381h412v-381q0 -199 -75 -282t-274 -83h-30q-47 0 -90 7v213zM131 575v381h408v-381h-408z" />
<glyph unicode="&#x3c;" d="M68 530v324l886 492v-385l-477 -269l475 -270l2 -383z" />
<glyph unicode="=" d="M6 508v172h1012v-172h-1012zM6 825v172h1012v-172h-1012z" />
<glyph unicode="&#x3e;" d="M70 39v385l477 268l-475 271l-2 383l886 -492v-324z" />
<glyph unicode="?" horiz-adv-x="1630" d="M80 897q0 264 80 367.5t325 103.5l281 10q154 0 228.5 -3t206.5 -21.5t197.5 -108.5t65.5 -252v-30q0 -96 -11 -155.5t-62.5 -115t-285 -98.5t-237.5 -90l2 -23h-352q0 240 78.5 286t359.5 89q72 10 117 38t45 93q0 68 -55 97.5t-129 29.5l-170 4l-146 -4q-94 0 -139 -35 t-45 -121q0 -41 4 -61h-358zM489 0v381h408v-381h-408z" />
<glyph unicode="@" horiz-adv-x="2263" d="M125 674l2 264q0 227 41 337.5t223 110.5l264 11l457 2h205l514 -17q209 0 260 -118.5t51 -372.5v-225q0 -53 -2 -94.5t-12 -99.5t-44 -101t-89.5 -53.5t-129 -14.5t-126.5 -4q-113 0 -189.5 16.5t-97 63.5t-20.5 110q-35 -115 -136.5 -148.5t-257.5 -33.5 q-119 0 -198.5 13.5t-141 56.5t-77 107.5t-15.5 156.5v37q0 117 6 163t38 107.5t135.5 84t248.5 22.5h66q125 0 208 -23.5t124 -107.5v125h225v-433q0 -63 21.5 -97t80.5 -34h19q74 0 95 42t21 122l4 260v25q0 98 -11 153.5t-41.5 75t-71.5 26.5t-101.5 9t-66.5 2l-205 4 l-258 2l-346 -2l-224 -2q-127 0 -160.5 -56t-33.5 -183v-72l-8 -213l10 -326q8 -98 32.5 -136t97.5 -49t123 -13t118 -2l407 -2l584 2q63 0 107 15t57 62l231 -43q-25 -98 -81.5 -150.5t-158.5 -66.5q-16 -2 -59 -4t-104 -2l-959 -4l-327 8q-209 0 -265.5 100.5t-56.5 329.5 zM852 686q0 -117 41 -163t156 -46l110 -2q152 0 210 40t58 177q0 133 -51 171t-200 38h-76q-66 0 -120 -8t-80 -31.5t-37 -57.5t-11 -104v-14z" />
<glyph unicode="A" horiz-adv-x="2205" d="M70 0l761 1366h562l745 -1366h-459l-129 248h-882l-136 -248h-462zM813 530h586l-293 541z" />
<glyph unicode="B" horiz-adv-x="2099" d="M178 0v1366h1297q205 0 313 -78t108 -274q0 -86 -15 -146.5t-55 -95.5t-74 -47t-95 -29q166 -27 229.5 -84t63.5 -219q0 -227 -109.5 -310t-345.5 -83h-1317zM594 309h756q72 0 127 15.5t55 117.5q0 55 -36 86t-140 31h-762v-250zM594 829h717q82 0 124 22.5t42 100.5 q0 70 -40 92.5t-118 22.5h-725v-238z" />
<glyph unicode="C" horiz-adv-x="2045" d="M154 719q0 336 98 492.5t401 156.5l389 10q170 0 281 -3t268.5 -19.5t225 -138t67.5 -332.5h-403q0 94 -46 125.5t-147 31.5l-117 2h-114l-211 -2q-188 0 -230.5 -69.5t-42.5 -288.5q0 -225 49.5 -292.5t262.5 -67.5l162 -5l213 3q125 0 178 34.5t53 163.5h407l3 -59 q0 -283 -103.5 -376t-408.5 -93l-318 -6l-258 4q-412 0 -529.5 107.5t-117.5 334.5z" />
<glyph unicode="D" horiz-adv-x="2156" d="M178 0v1366h1204q371 0 498 -123t127 -491v-78v-43v-37q0 -96 -3 -135t-23.5 -159t-141.5 -210t-303 -90h-1358zM594 334h700q193 0 243 71.5t50 272.5v12q0 201 -45 270.5t-242 69.5h-706v-696z" />
<glyph unicode="E" horiz-adv-x="1830" d="M178 0v1366h1524v-311h-1108v-234h1034v-270h-1034v-242h1108v-309h-1524z" />
<glyph unicode="F" horiz-adv-x="1701" d="M178 0v1366h1450v-311h-1034v-234h1034v-270h-1034v-551h-416z" />
<glyph unicode="G" horiz-adv-x="2082" d="M152 666q0 399 98 552.5t463 153.5l311 6l115 2l278 -6q270 0 392 -93t122 -359v-25h-407q0 49 -14.5 84t-53.5 49t-74.5 17.5t-103.5 3.5l-481 2q-147 0 -186.5 -72t-39.5 -242v-127q0 -141 39 -209.5t111 -78t110.5 -11.5t98.5 -2l370 -2q104 0 165 35t61 131l-2 39 h-527v256h936l2 -287q0 -252 -87 -373.5t-339 -121.5l-217 -2l-248 2l-215 2q-236 0 -374 31.5t-218.5 140t-80.5 332.5z" />
<glyph unicode="H" horiz-adv-x="2129" d="M176 0v1366h416v-500h942v500h418v-1366h-418v526h-942v-526h-416z" />
<glyph unicode="I" horiz-adv-x="772" d="M178 0v1366h416v-1366h-416z" />
<glyph unicode="J" horiz-adv-x="1652" d="M68 516l2 68h399l-2 -90q0 -109 64.5 -140.5t187.5 -31.5h110q100 0 164 25.5t64 105.5l2 104v809h416v-809q0 -250 -60.5 -378t-209 -155.5t-257 -31.5t-207.5 -4q-270 0 -400 25.5t-201.5 137t-71.5 365.5z" />
<glyph unicode="K" horiz-adv-x="2082" d="M178 0v1366h416v-514h213l563 514h574l-783 -676l869 -690h-611l-612 520h-213v-520h-416z" />
<glyph unicode="L" horiz-adv-x="1591" d="M178 0v1366h416v-1024h944v-342h-1360z" />
<glyph unicode="M" horiz-adv-x="2670" d="M176 0v1366h662l501 -905l496 905h657v-1366h-393v1040l-602 -1040h-334l-596 1040v-1040h-391z" />
<glyph unicode="N" horiz-adv-x="2230" d="M176 0v1366h662l823 -1024v1024h391v-1366h-661l-824 1026v-1026h-391z" />
<glyph unicode="O" horiz-adv-x="2172" d="M152 702q0 416 106.5 544t505.5 128l295 6l332 -2q365 0 498.5 -120.5t133.5 -483.5v-65q0 -426 -106.5 -570.5t-538.5 -144.5l-313 -6l-131 -2l-283 10q-238 0 -366.5 107.5t-128.5 347.5zM571 645q0 -188 44.5 -253.5t218.5 -65.5l223 -4l213 2q176 0 252.5 37.5 t76.5 187.5l5 184q0 94 -11.5 161t-46.5 98.5t-103.5 41.5t-146.5 10l-413 -2q-141 0 -215 -28.5t-85.5 -121.5t-11.5 -155v-37v-55z" />
<glyph unicode="P" horiz-adv-x="1947" d="M178 0v1366h1106q309 0 429 -100.5t120 -403.5q0 -287 -93 -404.5t-390 -117.5h-107h-649v-340h-416zM594 672h604q119 0 167 33.5t48 142.5q0 115 -49 150.5t-172 35.5h-598v-362z" />
<glyph unicode="Q" horiz-adv-x="2179" d="M152 709q0 90 4 171t22.5 197.5t155.5 206.5t457 90l313 4q166 0 277.5 -3t268 -18.5t259 -115.5t102.5 -301q6 -53 8 -136t2 -93q0 -123 -3 -188.5t-15 -155.5l176 -97l-145 -274l-162 110q-96 -66 -209 -90t-250 -24l-309 -6h-326q-188 0 -313 23.5t-197.5 105.5 t-92 187.5t-19.5 236.5zM571 649q0 -203 50.5 -266.5t265.5 -63.5l459 9q59 0 124 16l-442 244l172 272l402 -258v133q0 53 -2.5 92t-15.5 99.5t-76.5 87t-155.5 26.5l-246 4q-117 0 -190.5 -2t-176 -13t-135.5 -76.5t-33 -192.5v-111z" />
<glyph unicode="R" horiz-adv-x="2070" d="M178 0v1366h1272q246 0 351.5 -95t105.5 -337q0 -92 -10.5 -157.5t-41 -114t-71.5 -72t-172 -66.5q143 -18 210.5 -72.5t67.5 -189.5v-262h-422v131q0 100 -17 159.5t-163 59.5h-694v-350h-416zM594 682h629h53q141 0 176 35t35 155q0 68 -13.5 101t-55.5 45t-68.5 14 t-63.5 2h-33h-659v-352z" />
<glyph unicode="S" horiz-adv-x="2013" d="M150 942q0 170 50 264t182 128t346 40t288 6l291 -4q174 0 280.5 -28t150.5 -101t56 -132.5t12 -164.5h-407q0 72 -42 100.5t-118 28.5l-201 2l-317 -10q-63 0 -107.5 -23.5t-44.5 -78.5q0 -76 52.5 -99.5t142.5 -23.5h43l278 -4l275 -2q264 0 384 -83t120 -333 q0 -242 -107.5 -332t-355.5 -90l-533 -14l-278 6q-221 0 -325.5 71.5t-104.5 288.5v82h409l2 -22q0 -84 56.5 -105.5t156.5 -21.5l197 -2l279 8q115 0 149.5 28.5t34.5 90.5q0 55 -40 87.5t-153 32.5h-67l-684 15q-193 0 -271.5 97t-78.5 298z" />
<glyph unicode="T" horiz-adv-x="1742" d="M53 1024v342h1635v-342h-609v-1024h-415v1024h-611z" />
<glyph unicode="U" horiz-adv-x="2109" d="M176 526v838h416v-715q0 -205 49 -266t248 -61l186 -3l172 3q170 0 218 53t48 215v51v723h418v-778v-80q0 -319 -167 -420.5t-515 -101.5l-340 2q-270 0 -413.5 28.5t-231.5 145t-88 366.5z" />
<glyph unicode="V" horiz-adv-x="2121" d="M53 1366h455l536 -1030l560 1030h462l-761 -1366h-531z" />
<glyph unicode="W" horiz-adv-x="2971" d="M55 1366h426l400 -1036l358 1036h502l340 -1036l411 1036h424l-563 -1366h-565l-303 969l-316 -969h-559z" />
<glyph unicode="X" horiz-adv-x="2162" d="M53 0l682 682l-643 684h555l436 -489l439 489h536l-639 -684l688 -682h-569l-459 489l-461 -489h-565z" />
<glyph unicode="Y" horiz-adv-x="2048" d="M41 1366h524l463 -563l459 563h520l-768 -891v-475h-418v475z" />
<glyph unicode="Z" horiz-adv-x="1894" d="M117 0v309l1030 746h-1004v311h1614v-311l-1038 -746h1059v-309h-1661z" />
<glyph unicode="[" horiz-adv-x="868" d="M178 -436v1802h664v-272h-314v-1258h314v-272h-664z" />
<glyph unicode="\" horiz-adv-x="1597" d="M70 1366h288l1489 -1802h-297z" />
<glyph unicode="]" horiz-adv-x="868" d="M27 -164h313v1258h-313v272h663v-1802h-663v272z" />
<glyph unicode="^" d="M12 690l285 684h428l287 -684h-338l-162 424l-162 -424h-338z" />
<glyph unicode="_" d="M0 -100h1024v-226h-1024v226z" />
<glyph unicode="`" d="M244 1204l80 226l458 -226l-51 -137z" />
<glyph unicode="a" horiz-adv-x="1564" d="M123 303q0 152 83 228.5t234 76.5q80 6 162 6h55h105q109 0 179.5 -18t117.5 -84v104q0 86 -37 116t-125 30l-164 4l-117 -4q-51 0 -75.5 -14.5t-24.5 -61.5h-352q0 164 118 223.5t302 59.5l370 8q221 0 341 -65.5t120 -266.5v-645h-356v156q-41 -115 -148.5 -145.5 t-277.5 -30.5h-66q-229 0 -336.5 57t-107.5 266zM473 315q0 -68 51 -89t133 -21h60h31q117 0 191.5 11t97 33.5t22.5 69.5q0 57 -46 77t-112 20l-203 4q-94 0 -159.5 -17.5t-65.5 -87.5z" />
<glyph unicode="b" horiz-adv-x="1644" d="M150 0v1364h354v-565q63 117 167.5 146.5t278.5 29.5q328 0 450 -87t122 -403q0 -313 -112 -409t-447 -96h-54q-166 0 -258 35.5t-147 164.5v-180h-354zM502 487q0 -152 63.5 -198.5t220.5 -46.5h60q92 0 161.5 9t103.5 37.5t43 71.5t9 95q0 170 -48 214t-236 44h-41 q-51 0 -98.5 -1t-117 -15.5t-95 -63.5t-25.5 -146z" />
<glyph unicode="c" horiz-adv-x="1576" d="M123 489q0 236 89 344.5t316 129.5l336 14q303 0 442.5 -65.5t139.5 -329.5h-356q-6 37 -14.5 58.5t-33 39.5t-81 25.5t-119.5 7.5h-58q-86 0 -146 -8.5t-95 -35t-48.5 -67.5t-13.5 -121q0 -160 72 -198.5t252 -38.5q117 0 177 12t80.5 35.5t26 44t5.5 55.5h360 q0 -111 -20.5 -181.5t-90.5 -127.5q-80 -66 -226 -84t-318 -18q-246 0 -381 28.5t-215 138t-80 342.5z" />
<glyph unicode="d" horiz-adv-x="1646" d="M133 432v70q0 137 19.5 230t97.5 149.5t199.5 76t257.5 19.5q213 0 303 -42t151 -132v563h346v-1366h-346v207q-35 -135 -148.5 -181t-279.5 -46q-172 0 -301 19t-196.5 82.5t-85 149.5t-17.5 201zM500 492q0 -156 47 -203t203 -47l116 2q168 0 230.5 36.5t62.5 186.5 q0 162 -53 204t-232 42h-77q-78 0 -140.5 -8.5t-99.5 -35t-47 -69.5t-10 -108z" />
<glyph unicode="e" horiz-adv-x="1542" d="M123 506q0 242 94 353.5t328 111.5l336 6q152 0 252 -16.5t171.5 -76t95 -147.5t23.5 -200q0 -25 -1 -55.5t-1 -69.5h-938q0 -113 41 -159t152 -46l201 -4q68 0 112.5 8t60 28.5t19.5 73.5h352q0 -215 -138 -274t-394 -59l-342 12q-246 0 -335 125t-89 389zM481 623 l2 -27h588q0 104 -51 136t-166 32h-133q-113 0 -176.5 -23.5t-63.5 -117.5z" />
<glyph unicode="f" horiz-adv-x="1058" d="M96 721v235h187q0 260 101 351.5t364 91.5q47 0 128.5 -5t98.5 -5v-232l-139 4q-68 0 -102 -10t-56.5 -29.5t-31.5 -48.5t-9 -92l2 -25h358v-235h-358v-721h-356v721h-187z" />
<glyph unicode="g" horiz-adv-x="1652" d="M125 508q0 197 59.5 310.5t193.5 134t248.5 22.5t161.5 2q158 0 234 -34t127 -163v176h356v-938v-59q0 -182 -114.5 -287.5t-294.5 -105.5q-66 -8 -155 -12.5t-173 -4.5q-281 0 -441.5 61.5t-160.5 289.5h360q0 -43 38 -68t118 -30t98 -5h43q102 0 182 14.5t107 53.5 t32 73.5t5 79.5v185q-45 -96 -129 -145.5t-293 -49.5q-346 0 -474 85t-128 415zM483 498q0 -109 29 -158t122 -58.5t119.5 -10.5t59.5 -1h31q104 0 153.5 9.5t86 33t48 64.5t11.5 92v47q0 104 -32 148.5t-138 44.5l-189 4h-61q-70 0 -117 -8.5t-75.5 -33t-38 -62.5t-9.5 -77 v-34z" />
<glyph unicode="h" horiz-adv-x="1603" d="M152 0v1366h354v-573q53 119 148 151.5t255 32.5q274 0 409.5 -90t135.5 -352v-535h-354v477q0 143 -38 189.5t-224 46.5h-23q-168 0 -238.5 -45t-70.5 -195v-76v-397h-354z" />
<glyph unicode="i" horiz-adv-x="655" d="M150 0v956h354v-956h-354zM150 1108v258h354v-258h-354z" />
<glyph unicode="j" horiz-adv-x="739" d="M68 -125q25 -6 47 -6q63 0 90.5 32.5t27.5 98.5v956h357v-907l-2 -112q0 -170 -95.5 -237t-275.5 -67q-68 0 -149 11v231zM236 1108v258h354v-258h-354z" />
<glyph unicode="k" horiz-adv-x="1527" d="M150 0v1366h354v-719h78l338 309h475l-498 -436l576 -520h-478l-395 395h-96v-395h-354z" />
<glyph unicode="l" horiz-adv-x="655" d="M150 0v1366h354v-1366h-354z" />
<glyph unicode="m" horiz-adv-x="2433" d="M150 0v956h354v-178q53 117 149.5 158t241.5 41q160 0 277.5 -45t175.5 -168q37 125 146.5 169t266.5 44q244 0 382 -98.5t138 -331.5v-547h-354v475v31q0 115 -45 155.5t-184 40.5h-37q-90 0 -152.5 -18t-84 -59t-26.5 -77t-5 -73v-18v-457h-355v500q0 119 -48 160.5 t-175 41.5h-31q-139 0 -209.5 -38.5t-70.5 -163.5v-500h-354z" />
<glyph unicode="n" horiz-adv-x="1599" d="M150 0v956h354v-196q45 131 147.5 174t263.5 43q291 0 413 -95.5t122 -379.5v-502h-356v502q0 127 -52.5 163.5t-193.5 36.5h-41q-158 0 -230.5 -46t-72.5 -205v-23v-428h-354z" />
<glyph unicode="o" horiz-adv-x="1615" d="M133 430v57q0 182 33 287t144.5 147t258 48t222.5 6l370 -14q193 -23 267.5 -118t74.5 -296v-41q0 -291 -65.5 -391.5t-356.5 -126.5l-389 -8q-311 0 -435 79.5t-124 370.5zM492 473q0 -61 10 -113.5t45 -79t124 -32.5t126 -6h39q98 0 158.5 6t92 29.5t45 59.5t13.5 109 v72q0 66 -12.5 97.5t-47 56t-108.5 33t-168 8.5t-159.5 -9.5t-105.5 -42t-46 -93t-6 -95.5z" />
<glyph unicode="p" horiz-adv-x="1644" d="M150 -424v1380h354v-153q20 47 47 82t80 55.5t128 28.5t175 8q311 0 448.5 -70.5t137.5 -349.5v-117q0 -117 -14.5 -196.5t-79 -150t-188.5 -92t-300 -21.5q-162 0 -271.5 33.5t-162.5 148.5v-586h-354zM506 481q0 -125 39 -179t157 -54l177 -4q178 0 231 44t53 212 q0 117 -39 163t-159 46l-234 4q-76 0 -112.5 -8.5t-64.5 -29t-38 -61.5t-10 -96v-37z" />
<glyph unicode="q" horiz-adv-x="1632" d="M139 401q0 354 99.5 464t443.5 110h78q156 0 238.5 -28.5t146.5 -137.5v145h354v-1378h-354v582q-47 -86 -134 -132t-290 -46q-377 0 -479.5 102t-102.5 319zM498 432q0 -49 8 -84t35 -55q41 -33 117.5 -42t179.5 -9h32q170 0 225.5 40t55.5 195v15q0 61 -8 105t-36 66.5 t-94.5 36t-170.5 13.5h-56q-78 0 -140 -8.5t-95 -34t-43 -68.5t-10 -100v-15v-55z" />
<glyph unicode="r" horiz-adv-x="1349" d="M150 0v956h354v-190q39 123 134 167t241 44q221 0 305 -78t84 -295v-61h-330q-2 6 -2 22q-8 96 -50 122t-155 26q-129 0 -178 -69t-49 -208v-436h-354z" />
<glyph unicode="s" horiz-adv-x="1579" d="M123 295h371q0 -66 48 -79t84 -15t85 -2l168 -2q55 0 100 4t83 19.5t38 72.5q0 45 -35 58.5t-90 13.5h-266l-303 8q-276 25 -277 291q0 168 100.5 227t288.5 76l346 8q119 0 178.5 -3t162 -20.5t153.5 -78t51 -177.5h-373q-6 44 -55 54q-29 8 -59.5 10t-73.5 2h-154 q-35 0 -65.5 -1t-64.5 -6t-55.5 -25.5t-21.5 -51.5q0 -41 33 -53.5t86 -12.5l391 -2q229 0 344 -46t115 -236q0 -121 -32.5 -188.5t-126 -103.5t-221.5 -46t-277 -10h-150q-254 0 -390 53t-136 262z" />
<glyph unicode="t" horiz-adv-x="1335" d="M82 721v235h182v234h365v-234h577v-235h-577v-305q0 -94 29.5 -133t119.5 -39q80 0 116 26.5t36 102.5v43h276q0 -254 -81 -345t-343 -91q-322 0 -420 80.5t-98 250.5v410h-182z" />
<glyph unicode="u" horiz-adv-x="1611" d="M152 424v532h354v-499q0 -137 67.5 -175t219.5 -38q166 0 240.5 54t74.5 210v29v419h354v-956h-354v197q-33 -129 -152.5 -173t-283.5 -44q-266 0 -393 93t-127 351z" />
<glyph unicode="v" horiz-adv-x="1531" d="M61 956h400l307 -686l305 686h397l-471 -956h-464z" />
<glyph unicode="w" horiz-adv-x="2263" d="M94 956h375l223 -714l266 714h338l260 -714l232 714h379l-355 -956h-497l-187 565l-198 -565h-488z" />
<glyph unicode="x" horiz-adv-x="1521" d="M61 0l424 504l-397 452h473l189 -258l204 258h461l-385 -440l430 -516h-456l-248 344l-250 -344h-445z" />
<glyph unicode="y" horiz-adv-x="1519" d="M76 956h393l281 -704l309 704h393l-561 -1194q-61 -129 -144 -162.5t-251 -33.5l-134 8v242l78 -2q100 0 137 37.5t82 148.5h-145z" />
<glyph unicode="z" horiz-adv-x="1392" d="M109 0v246l632 473h-591v237h1112v-266l-611 -450h631v-240h-1173z" />
<glyph unicode="{" d="M152 346v313q61 12 86.5 51.5t25.5 106.5v273q0 178 87 236t259 58l240 -6v-358h-29q-129 0 -146.5 -17.5t-27.5 -128.5v-124q0 -96 -22.5 -150.5t-98.5 -105.5q72 -47 96.5 -105.5t24.5 -152.5v-144q2 -39 8.5 -80t33 -50t55 -13t77.5 -4l29 2v-340l-238 -6 q-172 0 -260 59t-88 240v268q0 76 -23.5 120t-88.5 58z" />
<glyph unicode="|" d="M315 -342v1706h392v-1706h-392z" />
<glyph unicode="}" d="M174 -35h31q96 0 134 18.5t38 102.5v150q0 98 23.5 152t97.5 106q-72 45 -96.5 103t-24.5 153v143q0 96 -35 121.5t-137 25.5h-31v338l242 6q170 0 257 -59t87 -240v-268q0 -74 23.5 -119t88.5 -59v-313q-61 -12 -86.5 -51t-25.5 -107v-272q0 -178 -87 -236.5t-257 -58.5 l-242 6v358z" />
<glyph unicode="~" horiz-adv-x="1366" d="M188 1255q70 178 150 243t174 65q63 0 191 -53.5t176 -53.5q39 0 66.5 32t53.5 81l185 -156q-72 -182 -147.5 -243.5t-172.5 -61.5q-53 0 -183 52t-187 52q-39 0 -67 -31.5t-54 -80.5z" />
<glyph unicode="&#xa1;" horiz-adv-x="669" d="M133 575v381h408v-381h-408zM141 -410l19 807h362l23 -807h-404z" />
<glyph unicode="&#xa2;" horiz-adv-x="1951" d="M315 756q0 276 126 380.5t407 104.5l45 -2v141h186v-141q270 0 416.5 -62.5t146.5 -293.5v-52h-354q-12 84 -62 107t-147 23v-447q80 0 137.5 28.5t57.5 100.5h364q0 -252 -128 -326.5t-412 -74.5h-19v-162h-186v162q-336 0 -457 93t-121 421zM678 745q0 -135 38 -175 t177 -56v447q-121 0 -168 -45.5t-47 -170.5z" />
<glyph unicode="&#xa3;" horiz-adv-x="1951" d="M96 512v231h211q0 360 84 492.5t410 132.5l264 4h106q158 0 268.5 -8t212 -42t140.5 -126t39 -240l-2 -57h-385q0 104 -50.5 136t-164.5 32l-221 4q-70 0 -113 -2t-97.5 -14.5t-78 -46t-23.5 -90.5l2 -115l-2 -60h570v-231h-566q0 -94 -30.5 -131t-126.5 -80h1312v-301 h-1695v297q94 0 122.5 56.5t28.5 158.5h-215z" />
<glyph unicode="&#xa4;" horiz-adv-x="1492" d="M63 219l213 215q-65 127 -65 262q0 66 19.5 131.5t54.5 130.5l-219 220l198 198l223 -223q63 31 134 48.5t139 17.5q63 0 118.5 -15.5t122.5 -48.5l222 219l196 -198l-213 -213q35 -61 55.5 -130t20.5 -139t-16.5 -131t-48.5 -129l213 -213l-197 -198l-211 210 q-133 -76 -281 -75q-70 0 -132 18.5t-136 56.5l-213 -208zM549 694q0 -82 57.5 -141t141.5 -59t141 59t57 141t-57.5 141.5t-140.5 59.5q-80 0 -139.5 -59.5t-59.5 -141.5z" />
<glyph unicode="&#xa5;" horiz-adv-x="2048" d="M41 1366h524l463 -563l459 563h520l-389 -453h289v-143h-412l-160 -184h572v-148h-668v-438h-418v438h-676v148h580l-160 184h-420v143h295z" />
<glyph unicode="&#xa6;" d="M315 313h392v-655h-392v655zM315 625v739h392v-739h-392z" />
<glyph unicode="&#xa7;" horiz-adv-x="1951" d="M188 -53h371q0 -86 41 -109.5t133 -23.5l232 -7l215 5q96 0 153.5 27.5t57.5 113.5q0 104 -127 121l-797 102q-258 35 -258 305q0 96 32.5 147.5t120.5 88.5q-92 35 -116.5 102.5t-24.5 188.5q0 211 103.5 286.5t318.5 75.5l336 8h281q248 0 349 -74.5t101 -310.5h-367 q0 80 -54 101.5t-152 21.5l-172 2l-156 -2q-100 0 -156.5 -19.5t-56.5 -101.5q0 -72 51 -96.5t131 -24.5l662 -75q168 -23 245.5 -84.5t77.5 -216.5q0 -90 -32.5 -162t-108.5 -105q84 -29 110.5 -91t26.5 -165q0 -252 -99 -336.5t-364 -84.5l-473 -11l-280 8 q-164 0 -259.5 60.5t-95.5 218.5v117zM604 502q0 -72 45 -95.5t131 -35.5l561 -72q43 51 59.5 88t16.5 72q0 63 -48 88.5t-126 36.5l-571 69q-33 -35 -50.5 -70.5t-17.5 -80.5z" />
<glyph unicode="&#xa8;" d="M152 1092v206h284v-206h-284zM588 1092v206h284v-206h-284z" />
<glyph unicode="&#xa9;" horiz-adv-x="1560" d="M70 682q0 295 208.5 504t505.5 209q291 0 498 -211t207 -502q0 -293 -206 -503t-499 -210t-503.5 209t-210.5 504zM244 682q0 -227 156.5 -390t381.5 -163q223 0 378 165t155 388t-154.5 388t-378.5 165q-225 0 -381.5 -163t-156.5 -390zM393 686q0 174 108.5 293 t282.5 119q139 0 246 -83t107 -216h-170q-16 55 -67.5 79.5t-117.5 24.5q-80 0 -122 -65.5t-42 -149.5q0 -88 41 -151.5t123 -63.5q76 0 126 32t63 101h172q0 -147 -103.5 -236t-257.5 -89q-176 0 -282.5 114.5t-106.5 290.5z" />
<glyph unicode="&#xaa;" horiz-adv-x="849" d="M33 512v168h831v-168h-831zM45 963q0 88 51 135t140 47l131 4h65q63 0 104.5 -10.5t69.5 -51.5v64q0 33 -8 52.5t-28.5 26.5t-83 9t-74.5 2l-70 -4q-31 0 -46 -8t-15 -37h-211q0 94 73 132t179 38l227 4q131 0 201.5 -39t70.5 -160v-387h-215v94q-23 -70 -89 -88 t-165 -18q-158 0 -232.5 31.5t-74.5 163.5zM256 971q0 -41 28.5 -54.5t80.5 -13.5h49h84q35 6 51 8q57 8 57 62q0 33 -28.5 45t-65.5 12l-119 2q-49 0 -75.5 -5t-44 -17.5t-17.5 -38.5z" />
<glyph unicode="&#xab;" horiz-adv-x="1296" d="M68 498l294 506l254 -144l-213 -362l211 -355l-252 -139zM627 498l295 506l252 -144l-213 -362l213 -355l-252 -139z" />
<glyph unicode="&#xac;" d="M68 270v340h886v-610h-376v270h-510z" />
<glyph unicode="&#xad;" horiz-adv-x="708" d="M20 319v349h668v-349h-668z" />
<glyph unicode="&#xae;" horiz-adv-x="1560" d="M70 682q0 295 208.5 504t505.5 209q291 0 498 -211t207 -502q0 -293 -206 -503t-499 -210t-503.5 209t-210.5 504zM244 682q0 -227 156.5 -390t381.5 -163q223 0 378 165t155 388t-154.5 388t-378.5 165q-225 0 -381.5 -163t-156.5 -390zM481 303v780h332q125 0 207 -49 t82 -166q0 -139 -123 -194q90 -37 104.5 -151.5t26.5 -219.5h-213q-18 41 -23.5 174t-168.5 133v-307h-224zM705 737h63q113 0 113 113q0 98 -105 98h-71v-211z" />
<glyph unicode="&#xaf;" d="M152 1092v206h720v-206h-720z" />
<glyph unicode="&#xb0;" d="M174 1030q0 150 94 252t244 102q141 0 239.5 -100t98.5 -244q0 -139 -101.5 -236t-240.5 -97q-131 0 -232.5 95t-101.5 228zM319 1042q0 -76 56.5 -134t132.5 -58q78 0 137.5 57.5t59.5 134.5q0 80 -55.5 139.5t-137.5 59.5q-78 0 -135.5 -59.5t-57.5 -139.5z" />
<glyph unicode="&#xb1;" d="M6 12v176h1010v-176h-1010zM6 668v176h412v416h184v-416h414v-176h-414v-398h-184v398h-412z" />
<glyph unicode="&#xb2;" horiz-adv-x="1224" d="M121 547v211q0 70 12 113.5t67.5 81.5t231.5 49.5t276.5 18.5t127 16.5t26.5 66.5q0 51 -14 67.5t-50 21.5t-85 5q-59 0 -118.5 -2t-119.5 -4q-66 0 -90.5 -22.5t-24.5 -84.5v-22h-237l-2 61q0 162 69.5 202t241.5 40l303 4l117 -2q139 0 197.5 -54t58.5 -194 q0 -154 -56.5 -214t-211.5 -60l-205 -15l-176 -12q-55 0 -78 -14t-23 -66v-20h750v-172h-987z" />
<glyph unicode="&#xb3;" horiz-adv-x="1224" d="M109 786l2 50h237q0 -70 18.5 -93.5t88.5 -23.5l311 -2q47 0 75.5 14t28.5 60q0 47 -22.5 65t-71.5 18h-268v164h217q59 0 92 12.5t33 61.5q0 47 -15.5 59.5t-39 16.5t-41.5 4l-170 4l-121 -4q-53 0 -80 -16.5t-27 -67.5l2 -27h-245q0 150 51 207.5t198 73.5l265 8h73 q47 0 92.5 -1t128.5 -12t129 -60.5t46 -161.5q0 -86 -29 -121t-123 -56q96 -16 134 -54t38 -138q0 -137 -87 -180t-243 -43h-358q-166 0 -242.5 45t-76.5 198z" />
<glyph unicode="&#xb4;" d="M244 1204l458 226l80 -226l-487 -137z" />
<glyph unicode="&#xb5;" horiz-adv-x="1245" d="M113 -354v1335h354v-492q0 -137 43 -186t119 -49q90 0 119.5 68.5t29.5 169.5v489h355v-981h-355v109q-27 -59 -60.5 -93t-88.5 -34q-51 0 -92 29.5t-70 78.5v-444h-354z" />
<glyph unicode="&#xb6;" horiz-adv-x="1341" d="M133 1010q0 201 129 278.5t340 77.5h545v-139h-98v-1458h-181v1458h-163v-1458h-181v893l-22 -3q-164 0 -266.5 94.5t-102.5 256.5z" />
<glyph unicode="&#xb7;" horiz-adv-x="559" d="M96 319v379h367v-379h-367z" />
<glyph unicode="&#xb8;" d="M297 -297l328 215l104 -229l-364 -117z" />
<glyph unicode="&#xb9;" horiz-adv-x="1224" d="M178 1137l361 229h313v-819h-258v616l-299 -198z" />
<glyph unicode="&#xba;" horiz-adv-x="890" d="M27 1040v35v10q0 195 82 239t313 44q37 0 126 -4t97 -4q113 -14 159 -72.5t46 -179.5v-53q0 -94 -16.5 -153.5t-63.5 -83t-89 -33t-85 -9.5q-57 0 -115.5 -2t-115.5 -4q-182 0 -260 50t-78 220zM33 512v168h831v-168h-831zM242 1067q0 -39 5 -68.5t24.5 -44t57 -20.5 t107.5 -6q66 0 105 4t61.5 20.5t27.5 38t5 58.5v45q0 33 -5 54t-27.5 36.5t-69 20.5t-101.5 5q-51 0 -94 -6t-64.5 -23.5t-26.5 -46t-5 -67.5z" />
<glyph unicode="&#xbb;" horiz-adv-x="1296" d="M123 143l213 355l-213 362l252 144l297 -506l-297 -494zM682 143l213 355l-213 362l252 144l295 -506l-295 -494z" />
<glyph unicode="&#xbc;" horiz-adv-x="2912" d="M178 1137l361 229h313v-819h-258v616l-299 -200zM784 0l1137 1366h205l-1135 -1366h-207zM1784 162v289l604 368h299v-485h135v-172h-135v-162h-240v162h-663zM1974 334h473v291z" />
<glyph unicode="&#xbd;" horiz-adv-x="2912" d="M178 1137l361 229h313v-819h-258v616l-299 -200zM784 0l1137 1366h205l-1135 -1366h-207zM1806 0v211q0 68 12.5 113t69 83.5t231.5 50t278.5 18.5t127 20.5t23.5 60.5v14q-4 39 -14.5 54.5t-48.5 20.5t-87 5q-59 0 -119.5 -2t-119.5 -4q-63 0 -88 -20.5t-25 -77.5 l-2 -31h-238v62q0 166 70 203.5t240 37.5l305 4q244 0 307 -59t63 -191q0 -154 -56 -214t-212 -60l-205 -14l-174 -13q-53 0 -76.5 -14t-23.5 -61v-25h747v-172h-985z" />
<glyph unicode="&#xbe;" horiz-adv-x="2912" d="M109 786l2 50h237q0 -70 18.5 -93.5t88.5 -23.5l311 -2q59 0 81.5 19.5t22.5 51.5q0 49 -22.5 67.5t-71.5 18.5l-63 -2h-205v166h217q59 0 92 12.5t33 59.5q0 25 -3 39t-19.5 25.5t-67.5 16.5t-113 5h-63l-121 -4q-53 0 -80 -16.5t-27 -69.5l2 -25h-245q0 150 53 214.5 t196 64.5q49 6 123 8t142 2h65q49 0 94 -1t131.5 -12t132.5 -60.5t46 -161.5q0 -76 -24.5 -113t-96.5 -57l-31 -9q94 -10 133 -52t39 -138q0 -137 -87 -180t-243 -43h-358q-166 0 -242.5 45t-76.5 198zM784 0l1137 1366h205l-1135 -1366h-207zM1784 162v289l604 368h299 v-485h135v-172h-135v-162h-240v162h-663zM1974 334h473v291z" />
<glyph unicode="&#xbf;" horiz-adv-x="1630" d="M84 6q0 88 11 145.5t63.5 114t286 96t233.5 111.5h350q0 -236 -77.5 -286t-360.5 -89q-68 -10 -115 -39.5t-47 -91.5q0 -66 57.5 -95.5t128.5 -29.5l136 -4l180 4q96 0 139 35t43 123q0 39 -4 57h358v-63q0 -135 -30.5 -226.5t-124.5 -131t-229.5 -50t-301.5 -10.5 q-113 0 -211 4t-227 20.5t-193.5 107.5t-64.5 255v43zM651 573v381h408v-381h-408z" />
<glyph unicode="&#xc0;" horiz-adv-x="2205" d="M70 0l761 1366h562l745 -1366h-459l-129 248h-882l-136 -248h-462zM813 530h586l-293 541zM836 1626l80 226l458 -226l-51 -137z" />
<glyph unicode="&#xc1;" horiz-adv-x="2205" d="M70 0l761 1366h562l745 -1366h-459l-129 248h-882l-136 -248h-462zM813 530h586l-293 541zM836 1626l458 226l80 -226l-487 -137z" />
<glyph unicode="&#xc2;" horiz-adv-x="2205" d="M70 0l761 1366h562l745 -1366h-459l-129 248h-882l-136 -248h-462zM694 1605l410 234l412 -234l-56 -122l-360 129l-358 -129zM813 530h586l-293 541z" />
<glyph unicode="&#xc3;" horiz-adv-x="2205" d="M70 0l761 1366h562l745 -1366h-459l-129 248h-882l-136 -248h-462zM672 1475q23 133 78 214t172 80q59 0 165 -42t162 -41q43 0 74 23q31 24 31 65h184q-14 -121 -83 -209q-68 -88 -185 -88q-47 0 -158 44t-162 44q-43 0 -64 -23q-22 -23 -32 -67h-182zM813 530h586 l-293 541z" />
<glyph unicode="&#xc4;" horiz-adv-x="2205" d="M70 0l761 1366h562l745 -1366h-459l-129 248h-882l-136 -248h-462zM744 1493v206h284v-206h-284zM813 530h586l-293 541zM1180 1493v206h284v-206h-284z" />
<glyph unicode="&#xc5;" horiz-adv-x="2205" d="M70 0l761 1366h562l745 -1366h-459l-129 248h-882l-136 -248h-462zM813 530h586l-293 541zM821 1614q0 84 91 118t192 33q111 0 198 -30q87 -31 87 -119q0 -92 -85 -127t-196 -35q-113 0 -200 33t-87 127zM938 1606q0 -37 44 -50q44 -12 99 -12h27q70 0 117 12t47 54 q0 49 -59 58q-58 9 -93 9h-16q-59 0 -113 -13q-53 -13 -53 -58z" />
<glyph unicode="&#xc6;" horiz-adv-x="3059" d="M41 0l913 1366h1977v-311h-1104v-234h1034v-270h-1034v-242h1104v-309h-1493v248h-740l-166 -248h-491zM874 526h564v529h-215z" />
<glyph unicode="&#xc7;" horiz-adv-x="2045" d="M154 719q0 336 98 492.5t401 156.5l389 10q170 0 281 -3t268.5 -21.5t225 -138t67.5 -330.5h-403q0 94 -46 125.5t-147 31.5l-117 2h-114l-211 -2q-188 0 -230.5 -69.5t-42.5 -288.5q0 -207 44.5 -283.5t234.5 -76.5l195 -5l213 3q125 0 178 34.5t53 163.5h407l3 -59 q0 -283 -103.5 -376t-408.5 -93l-318 -6l-258 4q-412 0 -529.5 107.5t-117.5 334.5zM811 -297l330 215l102 -229l-364 -117z" />
<glyph unicode="&#xc8;" horiz-adv-x="1830" d="M178 0v1366h1524v-311h-1108v-234h1034v-270h-1034v-242h1108v-309h-1524zM647 1626l80 226l458 -226l-51 -137z" />
<glyph unicode="&#xc9;" horiz-adv-x="1830" d="M178 0v1366h1524v-311h-1108v-234h1034v-270h-1034v-242h1108v-309h-1524zM647 1626l458 226l80 -226l-487 -137z" />
<glyph unicode="&#xca;" horiz-adv-x="1830" d="M178 0v1366h1524v-311h-1108v-234h1034v-270h-1034v-242h1108v-309h-1524zM505 1605l410 234l412 -234l-56 -122l-360 129l-358 -129z" />
<glyph unicode="&#xcb;" horiz-adv-x="1830" d="M178 0v1366h1524v-311h-1108v-234h1034v-270h-1034v-242h1108v-309h-1524zM555 1493v206h284v-206h-284zM991 1493v206h284v-206h-284z" />
<glyph unicode="&#xcc;" horiz-adv-x="772" d="M121 1626l80 226l458 -226l-51 -137zM178 0v1366h416v-1366h-416z" />
<glyph unicode="&#xcd;" horiz-adv-x="772" d="M121 1626l458 226l80 -226l-487 -137zM178 0v1366h416v-1366h-416z" />
<glyph unicode="&#xce;" horiz-adv-x="772" d="M-21 1605l410 234l412 -234l-56 -122l-360 129l-358 -129zM178 0v1366h416v-1366h-416z" />
<glyph unicode="&#xcf;" horiz-adv-x="772" d="M29 1493v206h284v-206h-284zM178 0v1366h416v-1366h-416zM465 1493v206h284v-206h-284z" />
<glyph unicode="&#xd0;" horiz-adv-x="2160" d="M0 580v245h178v541h1206q299 0 459 -89t160 -355l6 -248v-60v-30q0 -94 -3 -130t-22.5 -155t-140.5 -209t-303 -90h-1362v580h-178zM594 332h704q193 0 243 73.5t50 272.5v12q0 199 -47 269.5t-239 70.5h-711v-205h373v-245h-373v-248z" />
<glyph unicode="&#xd1;" horiz-adv-x="2230" d="M176 0v1366h662l823 -1024v1024h391v-1366h-661l-824 1026v-1026h-391zM682 1475q23 133 78 214t172 80q59 0 166 -42q106 -42 162 -41q43 0 73 23q31 24 31 65h184q-14 -121 -83 -209q-68 -88 -185 -88q-47 0 -158 44t-161 44q-43 0 -65 -23t-32 -67h-182z" />
<glyph unicode="&#xd2;" horiz-adv-x="2172" d="M152 702q0 416 106.5 544t505.5 128l295 6l332 -2q365 0 498.5 -120.5t133.5 -483.5v-65q0 -426 -106.5 -570.5t-538.5 -144.5l-313 -6l-131 -2l-283 10q-238 0 -366.5 107.5t-128.5 347.5zM571 645q0 -188 44.5 -253.5t218.5 -65.5l223 -4l213 2q176 0 252.5 37.5 t76.5 187.5l5 184q0 94 -11.5 161t-46.5 98.5t-103.5 41.5t-146.5 10l-413 -2q-141 0 -215 -28.5t-85.5 -121.5t-11.5 -155v-37v-55zM819 1626l80 226l458 -226l-51 -137z" />
<glyph unicode="&#xd3;" horiz-adv-x="2172" d="M152 702q0 416 106.5 544t505.5 128l295 6l332 -2q365 0 498.5 -120.5t133.5 -483.5v-65q0 -426 -106.5 -570.5t-538.5 -144.5l-313 -6l-131 -2l-283 10q-238 0 -366.5 107.5t-128.5 347.5zM571 645q0 -188 44.5 -253.5t218.5 -65.5l223 -4l213 2q176 0 252.5 37.5 t76.5 187.5l5 184q0 94 -11.5 161t-46.5 98.5t-103.5 41.5t-146.5 10l-413 -2q-141 0 -215 -28.5t-85.5 -121.5t-11.5 -155v-37v-55zM819 1626l458 226l80 -226l-487 -137z" />
<glyph unicode="&#xd4;" horiz-adv-x="2172" d="M152 702q0 416 106.5 544t505.5 128l295 6l332 -2q365 0 498.5 -120.5t133.5 -483.5v-65q0 -426 -106.5 -570.5t-538.5 -144.5l-313 -6l-131 -2l-283 10q-238 0 -366.5 107.5t-128.5 347.5zM571 645q0 -188 44.5 -253.5t218.5 -65.5l223 -4l213 2q176 0 252.5 37.5 t76.5 187.5l5 184q0 94 -11.5 161t-46.5 98.5t-103.5 41.5t-146.5 10l-413 -2q-141 0 -215 -28.5t-85.5 -121.5t-11.5 -155v-37v-55zM677 1605l410 234l412 -234l-56 -122l-360 129l-358 -129z" />
<glyph unicode="&#xd5;" horiz-adv-x="2172" d="M152 702q0 416 106.5 544t505.5 128l295 6l332 -2q365 0 498.5 -120.5t133.5 -483.5v-65q0 -426 -106.5 -570.5t-538.5 -144.5l-313 -6l-131 -2l-283 10q-238 0 -366.5 107.5t-128.5 347.5zM571 645q0 -188 44.5 -253.5t218.5 -65.5l223 -4l213 2q176 0 252.5 37.5 t76.5 187.5l5 184q0 94 -11.5 161t-46.5 98.5t-103.5 41.5t-146.5 10l-413 -2q-141 0 -215 -28.5t-85.5 -121.5t-11.5 -155v-37v-55zM655 1475q23 133 78 214t172 80q59 0 166 -42q106 -42 162 -41q43 0 74 23q31 24 30 65h185q-14 -121 -83 -209t-186 -88q-47 0 -157 44 q-111 44 -162 44q-43 0 -65 -23t-31 -67h-183z" />
<glyph unicode="&#xd6;" horiz-adv-x="2172" d="M152 702q0 416 106.5 544t505.5 128l295 6l332 -2q365 0 498.5 -120.5t133.5 -483.5v-65q0 -426 -106.5 -570.5t-538.5 -144.5l-313 -6l-131 -2l-283 10q-238 0 -366.5 107.5t-128.5 347.5zM571 645q0 -188 44.5 -253.5t218.5 -65.5l223 -4l213 2q176 0 252.5 37.5 t76.5 187.5l5 184q0 94 -11.5 161t-46.5 98.5t-103.5 41.5t-146.5 10l-413 -2q-141 0 -215 -28.5t-85.5 -121.5t-11.5 -155v-37v-55zM727 1493v206h284v-206h-284zM1163 1493v206h284v-206h-284z" />
<glyph unicode="&#xd7;" d="M86 455l301 299l-295 295l125 125l293 -297l299 301l129 -129l-301 -299l299 -295l-125 -125l-297 297l-299 -301z" />
<glyph unicode="&#xd8;" horiz-adv-x="2172" d="M51 -41v250l131 76q-16 41 -22 93t-6 103v31l-2 188q0 420 105 547t507 127l293 4l334 -2q139 0 167.5 -2t134 -15t193.5 -95l236 137v-256l-127 -74l14 -61q6 -47 10 -117t4 -184q0 -422 -108.5 -568.5t-536.5 -146.5l-315 -8l-365 6q-121 0 -223 23.5t-176 86.5z M569 752q0 -59 1 -113.5t8 -120.5l2 -8l888 518q-47 10 -97 13t-126 3l-362 -4q-84 0 -145.5 -8t-102.5 -45t-53.5 -94t-12.5 -141zM715 336l71 -10l271 -7l184 3q231 0 297 53t66 270l-7 203z" />
<glyph unicode="&#xd9;" horiz-adv-x="2109" d="M176 526v838h416v-715q0 -205 49 -266t248 -61l186 -3l172 3q170 0 218 53t48 215v51v723h418v-778v-80q0 -319 -167 -420.5t-515 -101.5l-340 2q-270 0 -413.5 28.5t-231.5 145t-88 366.5zM785 1626l80 226l458 -226l-51 -137z" />
<glyph unicode="&#xda;" horiz-adv-x="2109" d="M176 526v838h416v-715q0 -205 49 -266t248 -61l186 -3l172 3q170 0 218 53t48 215v51v723h418v-778v-80q0 -319 -167 -420.5t-515 -101.5l-340 2q-270 0 -413.5 28.5t-231.5 145t-88 366.5zM785 1626l458 226l80 -226l-487 -137z" />
<glyph unicode="&#xdb;" horiz-adv-x="2109" d="M176 526v838h416v-715q0 -205 49 -266t248 -61l186 -3l172 3q170 0 218 53t48 215v51v723h418v-778v-80q0 -319 -167 -420.5t-515 -101.5l-340 2q-270 0 -413.5 28.5t-231.5 145t-88 366.5zM643 1603l410 234l412 -234l-56 -122l-360 129l-358 -129z" />
<glyph unicode="&#xdc;" horiz-adv-x="2109" d="M176 526v838h416v-715q0 -205 49 -266t248 -61l186 -3l172 3q170 0 218 53t48 215v51v723h418v-778v-80q0 -319 -167 -420.5t-515 -101.5l-340 2q-270 0 -413.5 28.5t-231.5 145t-88 366.5zM693 1493v206h284v-206h-284zM1129 1493v206h284v-206h-284z" />
<glyph unicode="&#xdd;" horiz-adv-x="2048" d="M41 1366h524l463 -563l459 563h520l-768 -891v-475h-418v475zM756 1626l458 226l80 -226l-487 -137z" />
<glyph unicode="&#xde;" horiz-adv-x="1947" d="M176 -2v1366h416v-164h731q215 0 361.5 -130t146.5 -343q0 -215 -138.5 -338t-357.5 -123h-743v-268h-416zM592 565h676q76 0 126 44t50 120q0 80 -49 117t-133 37h-670v-318z" />
<glyph unicode="&#xdf;" horiz-adv-x="1656" d="M150 0v985q0 184 89 279.5t273 115.5q74 10 185.5 14.5t211.5 4.5q233 0 381 -54.5t148 -246.5q0 -125 -43 -180.5t-164 -90.5q160 -23 231.5 -107.5t71.5 -248.5q0 -252 -115.5 -371.5t-371.5 -119.5q-135 0 -237.5 28.5t-147 96t-54.5 131t-10 143.5h305 q0 -76 23.5 -101.5t87.5 -25.5q102 0 127.5 55t25.5 174q0 129 -40 180.5t-162 51.5h-295v243h284q61 0 94 17.5t33 79.5q0 51 -32.5 68.5t-74.5 21.5t-85 4h-117q-145 0 -202.5 -39t-57.5 -182v-926h-362z" />
<glyph unicode="&#xe0;" horiz-adv-x="1564" d="M123 303q0 152 83 228.5t234 76.5q80 6 162 6h55h105q109 0 179.5 -18t117.5 -84v104q0 86 -37 116t-125 30l-164 4l-117 -4q-51 0 -75.5 -14.5t-24.5 -61.5h-352q0 164 118 223.5t302 59.5l370 8q221 0 341 -65.5t120 -266.5v-645h-356v156q-41 -115 -148.5 -145.5 t-277.5 -30.5h-66q-229 0 -336.5 57t-107.5 266zM473 315q0 -68 51 -89t133 -21h60h31q117 0 191.5 11t97 33.5t22.5 69.5q0 57 -46 77t-112 20l-203 4q-94 0 -159.5 -17.5t-65.5 -87.5zM514 1204l80 226l458 -226l-51 -137z" />
<glyph unicode="&#xe1;" horiz-adv-x="1564" d="M123 303q0 152 83 228.5t234 76.5q80 6 162 6h55h105q109 0 179.5 -18t117.5 -84v104q0 86 -37 116t-125 30l-164 4l-117 -4q-51 0 -75.5 -14.5t-24.5 -61.5h-352q0 164 118 223.5t302 59.5l370 8q221 0 341 -65.5t120 -266.5v-645h-356v156q-41 -115 -148.5 -145.5 t-277.5 -30.5h-66q-229 0 -336.5 57t-107.5 266zM473 315q0 -68 51 -89t133 -21h60h31q117 0 191.5 11t97 33.5t22.5 69.5q0 57 -46 77t-112 20l-203 4q-94 0 -159.5 -17.5t-65.5 -87.5zM514 1204l458 226l80 -226l-487 -137z" />
<glyph unicode="&#xe2;" horiz-adv-x="1564" d="M123 303q0 152 83 228.5t234 76.5q80 6 162 6h55h105q109 0 179.5 -18t117.5 -84v104q0 86 -37 116t-125 30l-164 4l-117 -4q-51 0 -75.5 -14.5t-24.5 -61.5h-352q0 164 118 223.5t302 59.5l370 8q221 0 341 -65.5t120 -266.5v-645h-356v156q-41 -115 -148.5 -145.5 t-277.5 -30.5h-66q-229 0 -336.5 57t-107.5 266zM372 1212l410 234l412 -234l-56 -122l-360 129l-358 -129zM473 315q0 -68 51 -89t133 -21h60h31q117 0 191.5 11t97 33.5t22.5 69.5q0 57 -46 77t-112 20l-203 4q-94 0 -159.5 -17.5t-65.5 -87.5z" />
<glyph unicode="&#xe3;" horiz-adv-x="1564" d="M123 303q0 152 83 228.5t234 76.5q80 6 162 6h55h105q109 0 179.5 -18t117.5 -84v104q0 86 -37 116t-125 30l-164 4l-117 -4q-51 0 -75.5 -14.5t-24.5 -61.5h-352q0 164 118 223.5t302 59.5l370 8q221 0 341 -65.5t120 -266.5v-645h-356v156q-41 -115 -148.5 -145.5 t-277.5 -30.5h-66q-229 0 -336.5 57t-107.5 266zM350 1075q23 133 78 214t172 81q59 0 166 -42q106 -42 162 -42q43 0 73 24q31 24 31 64h185q-14 -121 -83 -209t-186 -88q-47 0 -157 44q-111 44 -162 44q-43 0 -65 -22q-22 -23 -32 -68h-182zM473 315q0 -68 51 -89t133 -21 h60h31q117 0 191.5 11t97 33.5t22.5 69.5q0 57 -46 77t-112 20l-203 4q-94 0 -159.5 -17.5t-65.5 -87.5z" />
<glyph unicode="&#xe4;" horiz-adv-x="1564" d="M123 303q0 152 83 228.5t234 76.5q80 6 162 6h55h105q109 0 179.5 -18t117.5 -84v104q0 86 -37 116t-125 30l-164 4l-117 -4q-51 0 -75.5 -14.5t-24.5 -61.5h-352q0 164 118 223.5t302 59.5l370 8q221 0 341 -65.5t120 -266.5v-645h-356v156q-41 -115 -148.5 -145.5 t-277.5 -30.5h-66q-229 0 -336.5 57t-107.5 266zM422 1094v206h284v-206h-284zM473 315q0 -68 51 -89t133 -21h60h31q117 0 191.5 11t97 33.5t22.5 69.5q0 57 -46 77t-112 20l-203 4q-94 0 -159.5 -17.5t-65.5 -87.5zM858 1094v206h284v-206h-284z" />
<glyph unicode="&#xe5;" horiz-adv-x="1564" d="M123 303q0 152 83 228.5t234 76.5q80 6 162 6h55h105q109 0 179.5 -18t117.5 -84v104q0 86 -37 116t-125 30l-164 4l-117 -4q-51 0 -75.5 -14.5t-24.5 -61.5h-352q0 164 118 223.5t302 59.5l370 8q221 0 341 -65.5t120 -266.5v-645h-356v156q-41 -115 -148.5 -145.5 t-277.5 -30.5h-66q-229 0 -336.5 57t-107.5 266zM473 315q0 -68 51 -89t133 -21h60h31q117 0 191.5 11t97 33.5t22.5 69.5q0 57 -46 77t-112 20l-203 4q-94 0 -159.5 -17.5t-65.5 -87.5zM500 1253q0 84 91 118t191 34q111 0 198 -31t87 -119q0 -92 -85 -127t-196 -34 q-113 0 -199 32q-87 33 -87 127zM616 1245q0 -37 44 -49t100 -12h26q70 0 117 12t47 53q0 49 -58 59q-58 9 -93 9h-17q-59 0 -112 -13t-54 -59z" />
<glyph unicode="&#xe6;" horiz-adv-x="2471" d="M133 287q0 162 73 238.5t228 76.5l197 6l168 -2q117 0 169 -13t107 -83v111q0 82 -45 107.5t-135 25.5l-182 4q-66 0 -98.5 -3t-48 -13.5t-20.5 -21.5t-9 -32h-363q0 172 114.5 230.5t311.5 58.5h207q55 0 109.5 -1t130 -8t130 -37t83.5 -106q61 98 156 125t249 27h80 q393 0 503.5 -100.5t110.5 -317.5l-2 -153h-938q0 -125 42 -167t167 -42l180 -4q86 0 139.5 19t53.5 91h356q-18 -211 -163.5 -267t-405.5 -56h-105q-137 0 -211.5 9t-148.5 33.5t-117 116.5q-27 -49 -62.5 -78.5t-100 -49t-142.5 -25.5t-203 -6h-36h-31q-121 0 -242 17 t-188.5 87t-67.5 203zM492 311q0 -66 46 -87t121 -21l97 -2h55q41 0 84 2t85 8t67.5 26.5t25.5 59.5q0 49 -36 79t-130 30h-252q-90 0 -126.5 -26t-36.5 -69zM1413 590h590q0 47 -8 76.5t-37 49t-78 27t-108 7.5h-56q-209 0 -250 -33t-53 -127z" />
<glyph unicode="&#xe7;" horiz-adv-x="1564" d="M137 489q0 238 91 356t315 118l336 14q303 0 442 -65.5t139 -329.5h-356q-6 37 -14.5 58.5t-33 39.5t-80.5 25.5t-120 7.5h-57q-86 0 -146.5 -8.5t-95.5 -35t-48 -67.5t-13 -121q0 -160 71.5 -198.5t251.5 -38.5q78 0 156 10t100.5 35.5t27.5 47t5 54.5h360 q0 -111 -20 -181.5t-90 -127.5q-80 -66 -226.5 -84t-318.5 -18q-246 0 -381 28.5t-215 138t-80 342.5zM604 -254l285 178l110 -164l-323 -112z" />
<glyph unicode="&#xe8;" horiz-adv-x="1542" d="M123 506q0 242 94 353.5t328 111.5l336 6q152 0 252 -16.5t171.5 -76t95 -147.5t23.5 -200q0 -25 -1 -55.5t-1 -69.5h-938q0 -113 41 -159t152 -46l201 -4q68 0 112.5 8t60 28.5t19.5 73.5h352q0 -215 -138 -274t-394 -59l-342 12q-246 0 -335 125t-89 389zM481 623 l2 -27h588q0 104 -51 136t-166 32h-133q-113 0 -176.5 -23.5t-63.5 -117.5zM504 1204l80 226l458 -226l-51 -137z" />
<glyph unicode="&#xe9;" horiz-adv-x="1542" d="M123 506q0 242 94 353.5t328 111.5l336 6q152 0 252 -16.5t171.5 -76t95 -147.5t23.5 -200q0 -25 -1 -55.5t-1 -69.5h-938q0 -113 41 -159t152 -46l201 -4q68 0 112.5 8t60 28.5t19.5 73.5h352q0 -215 -138 -274t-394 -59l-342 12q-246 0 -335 125t-89 389zM481 623 l2 -27h588q0 104 -51 136t-166 32h-133q-113 0 -176.5 -23.5t-63.5 -117.5zM504 1204l458 226l80 -226l-487 -137z" />
<glyph unicode="&#xea;" horiz-adv-x="1542" d="M123 506q0 242 94 353.5t328 111.5l336 6q152 0 252 -16.5t171.5 -76t95 -147.5t23.5 -200q0 -25 -1 -55.5t-1 -69.5h-938q0 -113 41 -159t152 -46l201 -4q68 0 112.5 8t60 28.5t19.5 73.5h352q0 -215 -138 -274t-394 -59l-342 12q-246 0 -335 125t-89 389zM362 1212 l410 234l412 -234l-56 -122l-360 129l-358 -129zM481 623l2 -27h588q0 104 -51 136t-166 32h-133q-113 0 -176.5 -23.5t-63.5 -117.5z" />
<glyph unicode="&#xeb;" horiz-adv-x="1542" d="M123 506q0 242 94 353.5t328 111.5l336 6q152 0 252 -16.5t171.5 -76t95 -147.5t23.5 -200q0 -25 -1 -55.5t-1 -69.5h-938q0 -113 41 -159t152 -46l201 -4q68 0 112.5 8t60 28.5t19.5 73.5h352q0 -215 -138 -274t-394 -59l-342 12q-246 0 -335 125t-89 389zM412 1094v206 h284v-206h-284zM481 623l2 -27h588q0 104 -51 136t-166 32h-133q-113 0 -176.5 -23.5t-63.5 -117.5zM848 1094v206h284v-206h-284z" />
<glyph unicode="&#xec;" horiz-adv-x="655" d="M60 1204l80 226l458 -226l-51 -137zM150 0v956h354v-956h-354z" />
<glyph unicode="&#xed;" horiz-adv-x="655" d="M60 1204l458 226l80 -226l-487 -137zM150 0v956h354v-956h-354z" />
<glyph unicode="&#xee;" horiz-adv-x="655" d="M-82 1212l410 234l412 -234l-56 -122l-360 129l-358 -129zM150 0v956h354v-956h-354z" />
<glyph unicode="&#xef;" horiz-adv-x="655" d="M-32 1092v206h284v-206h-284zM150 0v956h354v-956h-354zM404 1092v206h284v-206h-284z" />
<glyph unicode="&#xf0;" horiz-adv-x="1173" d="M49 508q0 221 148.5 358.5t369.5 137.5q-45 49 -75.5 77.5t-77.5 59.5l-232 -152l-69 107l182 112q-100 49 -229 72l47 117q98 -14 183 -32.5t163 -49.5l254 168l67 -109l-180 -112q262 -135 393 -314.5t131 -458.5q0 -227 -157.5 -374.5t-388.5 -147.5t-380 154.5 t-149 386.5zM406 504q0 -156 50 -224.5t128 -68.5q106 0 145 82t39 205q0 119 -27.5 204.5t-122.5 85.5q-111 0 -161.5 -81.5t-50.5 -202.5z" />
<glyph unicode="&#xf1;" horiz-adv-x="1599" d="M150 0v956h354v-196q45 131 147.5 174t263.5 43q291 0 413 -95.5t122 -379.5v-502h-356v502q0 127 -52.5 163.5t-193.5 36.5h-41q-158 0 -230.5 -46t-72.5 -205v-23v-428h-354zM367 1075q23 133 77 214q55 81 172 81q59 0 166 -42q106 -42 162 -42q43 0 74 24t31 64h184 q-14 -121 -83 -209q-68 -88 -185 -88q-47 0 -158 44t-162 44q-43 0 -64 -22q-22 -23 -32 -68h-182z" />
<glyph unicode="&#xf2;" horiz-adv-x="1615" d="M133 430v57q0 182 33 287t144.5 147t258 48t222.5 6l370 -14q193 -23 267.5 -118t74.5 -296v-41q0 -291 -65.5 -391.5t-356.5 -126.5l-389 -8q-311 0 -435 79.5t-124 370.5zM492 473q0 -61 10 -113.5t45 -79t124 -32.5t126 -6h39q98 0 158.5 6t92 29.5t45 59.5t13.5 109 v72q0 66 -12.5 97.5t-47 56t-108.5 33t-168 8.5t-159.5 -9.5t-105.5 -42t-46 -93t-6 -95.5zM549 1204l80 226l458 -226l-51 -137z" />
<glyph unicode="&#xf3;" horiz-adv-x="1615" d="M133 430v57q0 182 33 287t144.5 147t258 48t222.5 6l370 -14q193 -23 267.5 -118t74.5 -296v-41q0 -291 -65.5 -391.5t-356.5 -126.5l-389 -8q-311 0 -435 79.5t-124 370.5zM492 473q0 -61 10 -113.5t45 -79t124 -32.5t126 -6h39q98 0 158.5 6t92 29.5t45 59.5t13.5 109 v72q0 66 -12.5 97.5t-47 56t-108.5 33t-168 8.5t-159.5 -9.5t-105.5 -42t-46 -93t-6 -95.5zM549 1204l458 226l80 -226l-487 -137z" />
<glyph unicode="&#xf4;" horiz-adv-x="1615" d="M133 430v57q0 182 33 287t144.5 147t258 48t222.5 6l370 -14q193 -23 267.5 -118t74.5 -296v-41q0 -291 -65.5 -391.5t-356.5 -126.5l-389 -8q-311 0 -435 79.5t-124 370.5zM407 1212l410 234l412 -234l-56 -122l-360 129l-358 -129zM492 473q0 -61 10 -113.5t45 -79 t124 -32.5t126 -6h39q98 0 158.5 6t92 29.5t45 59.5t13.5 109v72q0 66 -12.5 97.5t-47 56t-108.5 33t-168 8.5t-159.5 -9.5t-105.5 -42t-46 -93t-6 -95.5z" />
<glyph unicode="&#xf5;" horiz-adv-x="1615" d="M133 430v57q0 182 33 287t144.5 147t258 48t222.5 6l370 -14q193 -23 267.5 -118t74.5 -296v-41q0 -291 -65.5 -391.5t-356.5 -126.5l-389 -8q-311 0 -435 79.5t-124 370.5zM385 1075q23 133 78 214t172 81q59 0 166 -42q106 -42 162 -42q43 0 73 24q31 24 31 64h184 q-14 -121 -83 -209q-68 -88 -185 -88q-47 0 -158 44t-161 44q-43 0 -65 -22q-22 -23 -32 -68h-182zM492 473q0 -61 10 -113.5t45 -79t124 -32.5t126 -6h39q98 0 158.5 6t92 29.5t45 59.5t13.5 109v72q0 66 -12.5 97.5t-47 56t-108.5 33t-168 8.5t-159.5 -9.5t-105.5 -42 t-46 -93t-6 -95.5z" />
<glyph unicode="&#xf6;" horiz-adv-x="1615" d="M133 430v57q0 182 33 287t144.5 147t258 48t222.5 6l370 -14q193 -23 267.5 -118t74.5 -296v-41q0 -291 -65.5 -391.5t-356.5 -126.5l-389 -8q-311 0 -435 79.5t-124 370.5zM457 1092v206h284v-206h-284zM492 473q0 -61 10 -113.5t45 -79t124 -32.5t126 -6h39 q98 0 158.5 6t92 29.5t45 59.5t13.5 109v72q0 66 -12.5 97.5t-47 56t-108.5 33t-168 8.5t-159.5 -9.5t-105.5 -42t-46 -93t-6 -95.5zM893 1092v206h284v-206h-284z" />
<glyph unicode="&#xf7;" d="M6 664v176h1010v-176h-1010zM379 408q0 53 39 92t92 39q55 0 94 -39t39 -92t-39 -92.5t-94 -39.5q-53 0 -92 39t-39 93zM381 1094q0 53 39 92t92 39t92 -39t39 -92t-39 -92t-92 -39t-92 38.5t-39 92.5z" />
<glyph unicode="&#xf8;" horiz-adv-x="1615" d="M49 -39v193l96 53q-14 41 -18 91t-4 105v117q0 164 33.5 261.5t144.5 139.5t257.5 48t219.5 6q137 0 246 -5t200 -19.5t146 -59.5l197 110v-192l-99 -55q14 -45 19.5 -96.5t5.5 -118.5v-33q0 -295 -68.5 -406.5t-353.5 -111.5l-293 -8h-102q-158 0 -262.5 16t-175.5 72z M481 473q0 -47 6 -90l543 307q-49 12 -107.5 17.5t-123.5 5.5q-119 0 -175.5 -12.5t-91.5 -41.5q-35 -27 -43 -72.5t-8 -113.5zM569 264q49 -12 109.5 -17t126.5 -5h24q96 0 174 13t105 62.5t27 131.5v34v37v31q-4 20 -5 29z" />
<glyph unicode="&#xf9;" horiz-adv-x="1611" d="M152 424v532h354v-499q0 -137 67.5 -175t219.5 -38q166 0 240.5 54t74.5 210v29v419h354v-956h-354v197q-33 -129 -152.5 -173t-283.5 -44q-266 0 -393 93t-127 351zM539 1204l80 226l458 -226l-51 -137z" />
<glyph unicode="&#xfa;" horiz-adv-x="1611" d="M152 424v532h354v-499q0 -137 67.5 -175t219.5 -38q166 0 240.5 54t74.5 210v29v419h354v-956h-354v197q-33 -129 -152.5 -173t-283.5 -44q-266 0 -393 93t-127 351zM539 1204l458 226l80 -226l-487 -137z" />
<glyph unicode="&#xfb;" horiz-adv-x="1611" d="M152 424v532h354v-499q0 -137 67.5 -175t219.5 -38q166 0 240.5 54t74.5 210v29v419h354v-956h-354v197q-33 -129 -152.5 -173t-283.5 -44q-266 0 -393 93t-127 351zM397 1212l410 234l412 -234l-56 -122l-360 129l-358 -129z" />
<glyph unicode="&#xfc;" horiz-adv-x="1611" d="M152 424v532h354v-499q0 -137 67.5 -175t219.5 -38q166 0 240.5 54t74.5 210v29v419h354v-956h-354v197q-33 -129 -152.5 -173t-283.5 -44q-266 0 -393 93t-127 351zM447 1092v206h284v-206h-284zM883 1092v206h284v-206h-284z" />
<glyph unicode="&#xfd;" horiz-adv-x="1519" d="M76 956h393l281 -704l309 704h393l-561 -1194q-61 -129 -144 -162.5t-251 -33.5l-134 8v242l78 -2q100 0 137 37.5t82 148.5h-145zM492 1204l458 226l80 -226l-487 -137z" />
<glyph unicode="&#xfe;" horiz-adv-x="1644" d="M150 -424v1790h354v-563q20 47 47 82t80 55.5t128 28.5t175 8q311 0 448.5 -70.5t137.5 -349.5v-117q0 -117 -14.5 -196.5t-79 -150t-188.5 -92t-300 -21.5q-162 0 -271.5 33.5t-162.5 148.5v-586h-354zM506 481q0 -125 39 -179t157 -54l177 -4q178 0 231 44t53 212 q0 117 -39 163t-159 46l-234 4q-76 0 -112.5 -8.5t-64.5 -29t-38 -61.5t-10 -96v-37z" />
<glyph unicode="&#xff;" horiz-adv-x="1519" d="M76 956h393l281 -704l309 704h393l-561 -1194q-61 -129 -144 -162.5t-251 -33.5l-134 8v242l78 -2q100 0 137 37.5t82 148.5h-145zM400 1094v206h284v-206h-284zM836 1094v206h284v-206h-284z" />
<glyph unicode="&#x152;" horiz-adv-x="3205" d="M150 688q0 379 106 533.5t461 154.5l352 2h100.5t137.5 -8t153.5 -40t124.5 -120v154h1491v-309h-1104v-234h1037v-270h-1037v-242h1104v-309h-1491v152q-55 -94 -146 -128t-218 -34l-303 -4h-44q-139 0 -324 18.5t-288.5 122.5t-103.5 330q0 39 -4 131t-4 100zM569 645 q0 -145 31 -220t150 -91l294 -15l203 3q229 0 282.5 61t53.5 295v24q0 53 -2 94.5t-11 92.5t-34 81.5t-68 42t-82.5 13.5t-89.5 2l-235 4l-281 -4q-135 -12 -173 -69.5t-38 -215.5v-57v-41z" />
<glyph unicode="&#x153;" horiz-adv-x="2535" d="M129 457q0 258 63.5 370.5t222 129t231.5 18.5t173 2h49q94 0 162 -5t149 -27.5t124 -113.5q49 88 147 118t229 30l119 -2q227 0 350 -23.5t197 -119t74 -302.5l-2 -118h-938q0 -119 39.5 -165t150.5 -46l182 -6q49 0 95.5 5t83 22.5t36.5 76.5h351q0 -147 -107.5 -234 t-390.5 -87l-346 8q-106 10 -166.5 38.5t-103.5 108.5q-53 -86 -134.5 -119.5t-199.5 -33.5l-287 -2q-199 0 -329 39.5t-170 133t-47 161t-7 143.5zM477 498q0 -170 65.5 -212t245.5 -42h37q186 0 252 36.5t66 198.5q0 147 -52.5 195.5t-211.5 48.5h-127q-80 0 -134.5 -8 t-88 -34t-43 -71t-9.5 -98v-14zM1470 598h596q0 47 -9 81t-36.5 53.5t-75 26.5t-102.5 7h-67q-47 0 -91.5 -1t-122 -16.5t-89.5 -123.5z" />
<glyph unicode="&#x178;" horiz-adv-x="2048" d="M41 1366h524l463 -563l459 563h520l-768 -891v-475h-418v475zM664 1493v206h284v-206h-284zM1100 1493v206h284v-206h-284z" />
<glyph unicode="&#x2c6;" d="M102 1212l410 234l412 -234l-56 -122l-360 129l-358 -129z" />
<glyph unicode="&#x2dc;" d="M80 1075q23 133 78 214t172 81q59 0 165.5 -42t161.5 -42q43 0 74 23.5t31 64.5h184q-14 -121 -82.5 -209t-185.5 -88q-47 0 -157.5 44t-162.5 44q-43 0 -64.5 -22.5t-31.5 -67.5h-182z" />
<glyph unicode="&#x2000;" horiz-adv-x="926" />
<glyph unicode="&#x2001;" horiz-adv-x="1852" />
<glyph unicode="&#x2002;" horiz-adv-x="926" />
<glyph unicode="&#x2003;" horiz-adv-x="1852" />
<glyph unicode="&#x2004;" horiz-adv-x="617" />
<glyph unicode="&#x2005;" horiz-adv-x="463" />
<glyph unicode="&#x2006;" horiz-adv-x="308" />
<glyph unicode="&#x2007;" horiz-adv-x="308" />
<glyph unicode="&#x2008;" horiz-adv-x="231" />
<glyph unicode="&#x2009;" horiz-adv-x="370" />
<glyph unicode="&#x200a;" horiz-adv-x="102" />
<glyph unicode="&#x2010;" horiz-adv-x="708" d="M20 319v349h668v-349h-668z" />
<glyph unicode="&#x2011;" horiz-adv-x="708" d="M20 319v349h668v-349h-668z" />
<glyph unicode="&#x2012;" horiz-adv-x="708" d="M20 319v349h668v-349h-668z" />
<glyph unicode="&#x2013;" horiz-adv-x="1951" d="M322 319v349h1306v-349h-1306z" />
<glyph unicode="&#x2014;" horiz-adv-x="2125" d="M41 319v349h2044v-349h-2044z" />
<glyph unicode="&#x2018;" horiz-adv-x="651" d="M113 623v378q0 205 76.5 286t277.5 81h56.5t58.5 -6v-215l-43 4q-72 0 -100.5 -38t-28.5 -112h114v-378h-411z" />
<glyph unicode="&#x2019;" horiz-adv-x="659" d="M70 627v213l43 -4q72 0 100.5 37.5t28.5 111.5h-115v381h412v-381q0 -197 -74 -280.5t-275 -83.5h-30q-47 0 -90 6z" />
<glyph unicode="&#x201a;" horiz-adv-x="659" d="M70 -145l43 -5q72 0 100.5 38t28.5 112h-115v381h412v-381q0 -199 -75 -282t-274 -83h-30q-47 0 -90 7v213z" />
<glyph unicode="&#x201c;" horiz-adv-x="1204" d="M113 623v378q0 205 76.5 286t277.5 81h56.5t58.5 -6v-215l-43 4q-72 0 -100.5 -38t-28.5 -112h114v-378h-411zM666 623v378q0 205 76.5 286t277.5 81h56.5t58.5 -6v-215l-43 4q-72 0 -100.5 -38t-28.5 -112h114v-378h-411z" />
<glyph unicode="&#x201d;" horiz-adv-x="1212" d="M70 627v213l43 -4q72 0 100.5 37.5t28.5 111.5h-115v381h412v-381q0 -197 -74 -280.5t-275 -83.5h-30q-47 0 -90 6zM623 627v213l43 -4q72 0 100.5 37.5t28.5 111.5h-115v381h412v-381q0 -203 -65 -283.5t-284 -80.5h-30q-47 0 -90 6z" />
<glyph unicode="&#x201e;" horiz-adv-x="1212" d="M70 -145l43 -5q72 0 100.5 38t28.5 112h-115v381h412v-381q0 -199 -75 -282t-274 -83h-30q-47 0 -90 7v213zM623 -145l43 -5q72 0 100.5 38t28.5 112h-115v381h412v-381q0 -201 -73 -283t-276 -82h-30q-47 0 -90 7v213z" />
<glyph unicode="&#x2022;" horiz-adv-x="1228" d="M406 586q0 82 57 139t139 57t141.5 -57t59.5 -139t-57.5 -139.5t-143.5 -57.5q-82 0 -139 57.5t-57 139.5z" />
<glyph unicode="&#x2026;" horiz-adv-x="2039" d="M135 0v381h408v-381h-408zM815 0v381h408v-381h-408zM1495 0v381h408v-381h-408z" />
<glyph unicode="&#x202f;" horiz-adv-x="370" />
<glyph unicode="&#x2039;" horiz-adv-x="739" d="M68 498l294 506l254 -144l-213 -362l211 -355l-252 -139z" />
<glyph unicode="&#x203a;" horiz-adv-x="739" d="M123 143l213 355l-213 362l252 144l297 -506l-297 -494z" />
<glyph unicode="&#x205f;" horiz-adv-x="463" />
<glyph unicode="&#x20ac;" horiz-adv-x="1951" d="M127 612v76q0 408 105.5 544t486.5 136l262 4l160 2q115 0 164 -3t161.5 -18.5t198.5 -68.5t114.5 -145t40 -187.5t11.5 -263.5q0 -299 -31 -430t-157.5 -196.5t-415.5 -65.5l-430 -4q-410 0 -540 110.5t-130 509.5zM469 508v172h1012v-172h-1012zM469 825v172h1012v-172 h-1012zM528 684q0 -215 46.5 -283.5t248.5 -68.5l162 -4h113q199 0 265.5 54t66.5 273v31v29v24q0 88 -12.5 157t-56.5 101.5t-95.5 41t-113.5 10.5t-71 2h-192q-244 0 -302.5 -58.5t-58.5 -281.5v-27z" />
<glyph unicode="&#x2122;" horiz-adv-x="2807" d="M43 1151v215h1030v-215h-377v-604h-274v604h-379zM1235 547v819h424l305 -524l303 524h420v-819h-258v592l-361 -592h-217l-356 592v-592h-260z" />
<glyph unicode="&#x25fc;" horiz-adv-x="952" d="M0 0v952h952v-952h-952z" />
<glyph unicode="&#xfb01;" horiz-adv-x="1714" d="M96 721v235h187q0 260 101 351.5t364 91.5q47 0 128.5 -5t98.5 -5v-232l-139 4q-68 0 -102 -10t-56.5 -29.5t-31.5 -48.5t-9 -92l2 -25h358v-235h-358v-721h-356v721h-187zM1208 0v956h357v-956h-357zM1208 1108v258h357v-258h-357z" />
<glyph unicode="&#xfb02;" horiz-adv-x="1714" d="M96 721v235h187q0 260 101 351.5t364 91.5q47 0 128.5 -5t98.5 -5v-232l-139 4q-68 0 -102 -10t-56.5 -29.5t-31.5 -48.5t-9 -92l2 -25h358v-235h-358v-721h-356v721h-187zM1208 0v1366h357v-1366h-357z" />
</font>
</defs>
</svg>
